<?xml version="1.0" encoding="utf-8"?>
<!-- Generator: Adobe Illustrator 15.1.0, SVG Export Plug-In  -->
<!DOCTYPE svg PUBLIC "-//W3C//DTD SVG 1.1//EN" "http://www.w3.org/Graphics/SVG/1.1/DTD/svg11.dtd" [
	<!ENTITY ns_flows "http://ns.adobe.com/Flows/1.0/">
]>
<svg version="1.1"
	 xmlns="http://www.w3.org/2000/svg" xmlns:xlink="http://www.w3.org/1999/xlink" xmlns:a="http://ns.adobe.com/AdobeSVGViewerExtensions/3.0/"
	 x="0px" y="0px" width="401px" height="376px" viewBox="0 0 401 376" enable-background="new 0 0 401 376" xml:space="preserve">
<defs>
</defs>
<g>
	<defs>
		<rect id="SVGID_2_" width="251.533" height="256.809"/>
	</defs>
	<clipPath id="SVGID_3_">
		<use xlink:href="#SVGID_2_"  overflow="visible"/>
	</clipPath>
</g>
<rect x="0.417" y="0.301" fill="#EAEAEA" width="120" height="115"/>
<rect x="0.417" y="130.301" fill="#EAEAEA" width="120" height="116"/>
<rect x="0.417" y="261.3" fill="#EAEAEA" width="120" height="114.7"/>
<rect x="141.416" y="0.301" fill="#EAEAEA" width="120.001" height="115"/>
<rect x="141.417" y="130.301" fill="#EAEAEA" width="120" height="116"/>
<rect x="141.416" y="261.3" fill="#EAEAEA" width="120.001" height="114.7"/>
<rect x="281.417" y="0.301" fill="#EAEAEA" width="119.584" height="115"/>
<rect x="281.417" y="130.301" fill="#EAEAEA" width="119.584" height="116"/>
<rect x="281.417" y="261.3" fill="#EAEAEA" width="119.584" height="114.7"/>
<g>
	<defs>
		<rect id="SVGID_1_" width="401" height="376"/>
	</defs>
	<clipPath id="SVGID_4_">
		<use xlink:href="#SVGID_1_"  overflow="visible"/>
	</clipPath>
	<path clip-path="url(#SVGID_4_)" fill="#566EA2" d="M89.016,48.962l-1.078,1.912c-3.711-1.281-6.749-2.968-9.108-5.055
		c-2.53,2.245-5.597,3.902-9.197,4.966l-1.078-1.844c3.376-0.949,6.319-2.457,8.826-4.528c-1.796-2.056-3.268-4.407-4.413-7.05
		l1.819-0.901c1.071,2.508,2.404,4.695,3.998,6.566c1.731-1.966,3.039-4.132,3.931-6.498l1.887,0.833
		c-1.057,2.658-2.504,5.007-4.346,7.05C82.487,46.302,85.409,47.821,89.016,48.962 M77.225,31.384
		c-2.299,3.176-4.661,5.682-7.087,7.522l-1.427-1.712c2.067-1.397,4.29-3.679,6.672-6.846L77.225,31.384z M88.813,37.656
		l-1.752,1.206c-1.534-2.434-3.733-4.881-6.591-7.342l1.695-1.195C85.057,32.871,87.271,35.316,88.813,37.656"/>
	<path clip-path="url(#SVGID_4_)" fill="#F56E6E" d="M49.157,81.787h-2.741c-0.126,1.185-0.4,2.009-0.818,2.466
		c-0.42,0.459-1.001,0.722-1.747,0.795c-0.746,0.07-1.926,0.107-3.544,0.107l-0.561-1.982l3.481-0.023
		c0.63,0,0.989-0.455,1.078-1.363H30.481c0.396-3.137,0.667-5.504,0.808-7.093H29.19v-1.959h2.189
		c0.165-1.788,0.319-4.201,0.46-7.242h15.455c-0.023,2.486-0.106,4.9-0.248,7.242h2.111v1.959h-2.189
		c-0.052,1.284-0.165,2.994-0.338,5.135h2.527V81.787z M44.878,74.694H33.356c-0.165,1.906-0.333,3.617-0.506,5.135h11.681
		C44.673,78.426,44.789,76.712,44.878,74.694 M45.136,67.475H33.884c-0.136,2.192-0.266,3.945-0.393,5.26h11.478
		C45.081,70.7,45.136,68.947,45.136,67.475 M41.475,70.932l-1.515,1.362c-1.005-1.028-2.262-2.011-3.775-2.95l1.472-1.364
		C38.923,68.742,40.196,69.723,41.475,70.932 M41.386,78.218l-1.663,1.17c-1.025-1.14-2.152-2.184-3.379-3.13l1.492-1.271
		C39.267,76.059,40.45,77.137,41.386,78.218"/>
	<rect x="191.652" y="42.839" clip-path="url(#SVGID_4_)" fill="#566EA2" width="5.369" height="28.478"/>
	<path clip-path="url(#SVGID_4_)" fill="#566EA2" d="M207.861,44.067l5.294,11.39h-1.222l-1.787-3.747h-4.897l-1.769,3.747h-1.267
		l5.367-11.39H207.861z M207.716,46.487l-1.946,4.125h3.884L207.716,46.487z"/>
	<path clip-path="url(#SVGID_4_)" fill="#566EA2" d="M340.314,42.209c0.92,0,1.717,0.337,2.377,1.007
		c0.659,0.671,0.989,1.484,0.989,2.44c0,0.943-0.323,1.745-0.983,2.41c-0.651,0.664-1.437,0.997-2.347,0.997
		c-0.935,0-1.735-0.338-2.396-1.017c-0.661-0.677-0.991-1.5-0.991-2.468c0-0.928,0.325-1.723,0.979-2.38
		C338.597,42.537,339.388,42.209,340.314,42.209 M337.675,50.883h5.273v21.062h-5.273V50.883z"/>
	<rect x="50.123" y="173.184" clip-path="url(#SVGID_4_)" fill="#F56E6E" width="5.369" height="28.482"/>
	<path clip-path="url(#SVGID_4_)" fill="#F56E6E" d="M61.719,174.414h2.24c0.902,0,1.594,0.107,2.079,0.322
		c0.483,0.213,0.865,0.543,1.146,0.986c0.28,0.444,0.419,0.938,0.419,1.481c0,0.504-0.121,0.967-0.365,1.381
		c-0.247,0.416-0.61,0.754-1.087,1.011c0.591,0.2,1.045,0.438,1.366,0.709c0.316,0.272,0.564,0.6,0.741,0.983
		c0.177,0.385,0.267,0.803,0.267,1.252c0,0.912-0.334,1.685-1.001,2.318c-0.667,0.633-1.562,0.947-2.684,0.947h-3.121V174.414z
		 M62.831,175.529v3.647h0.651c0.79,0,1.37-0.073,1.742-0.217c0.372-0.149,0.665-0.383,0.882-0.699
		c0.216-0.319,0.325-0.67,0.325-1.057c0-0.524-0.182-0.93-0.547-1.231c-0.362-0.293-0.942-0.443-1.737-0.443H62.831z
		 M62.831,180.324v4.367h1.408c0.832,0,1.44-0.082,1.826-0.246c0.389-0.16,0.698-0.416,0.933-0.76
		c0.236-0.347,0.351-0.722,0.351-1.125c0-0.506-0.164-0.947-0.494-1.324c-0.329-0.377-0.783-0.635-1.361-0.773
		c-0.387-0.094-1.06-0.139-2.022-0.139H62.831z"/>
	<path clip-path="url(#SVGID_4_)" fill="#F56E6E" d="M62.674,302.904c0.924,0,1.715,0.338,2.377,1.008
		c0.661,0.67,0.99,1.484,0.99,2.439c0,0.939-0.326,1.744-0.981,2.408c-0.655,0.666-1.437,1-2.349,1c-0.937,0-1.736-0.34-2.397-1.02
		c-0.661-0.674-0.991-1.5-0.991-2.471c0-0.926,0.327-1.721,0.981-2.375C60.958,303.234,61.749,302.904,62.674,302.904
		 M60.037,311.578h5.271v21.062h-5.271V311.578z"/>
	<rect x="178.663" y="173.184" clip-path="url(#SVGID_4_)" fill="#566EA2" width="5.369" height="28.482"/>
	<path clip-path="url(#SVGID_4_)" fill="#566EA2" d="M194.871,174.414l5.3,11.391h-1.228l-1.787-3.748h-4.893l-1.771,3.748h-1.266
		l5.367-11.391H194.871z M194.728,176.834l-1.947,4.127h3.884L194.728,176.834z"/>
	<rect x="204.195" y="173.184" clip-path="url(#SVGID_4_)" fill="#F56E6E" width="5.367" height="28.482"/>
	<path clip-path="url(#SVGID_4_)" fill="#F56E6E" d="M215.791,174.414h2.24c0.901,0,1.596,0.107,2.079,0.322
		c0.482,0.213,0.865,0.543,1.147,0.986c0.279,0.444,0.419,0.938,0.419,1.481c0,0.504-0.123,0.967-0.369,1.381
		c-0.246,0.416-0.604,0.754-1.082,1.011c0.59,0.2,1.045,0.438,1.364,0.709c0.318,0.272,0.563,0.6,0.742,0.983
		c0.177,0.385,0.265,0.803,0.265,1.252c0,0.912-0.332,1.685-1,2.318c-0.666,0.633-1.562,0.947-2.683,0.947h-3.123V174.414z
		 M216.903,175.529v3.647h0.652c0.789,0,1.369-0.073,1.743-0.217c0.369-0.149,0.662-0.383,0.88-0.699
		c0.217-0.319,0.325-0.67,0.325-1.057c0-0.524-0.182-0.93-0.547-1.231c-0.364-0.293-0.944-0.443-1.737-0.443H216.903z
		 M216.903,180.324v4.367h1.41c0.828,0,1.44-0.082,1.826-0.246c0.385-0.16,0.698-0.416,0.93-0.76
		c0.234-0.347,0.354-0.722,0.354-1.125c0-0.506-0.166-0.947-0.495-1.324c-0.332-0.377-0.783-0.635-1.361-0.773
		c-0.387-0.094-1.059-0.139-2.019-0.139H216.903z"/>
	<rect x="326.248" y="173.815" clip-path="url(#SVGID_4_)" fill="#F56E6E" width="5.371" height="28.481"/>
	<path clip-path="url(#SVGID_4_)" fill="#F56E6E" d="M337.848,175.043h2.238c0.901,0,1.592,0.107,2.075,0.32
		c0.485,0.215,0.867,0.543,1.149,0.988c0.281,0.444,0.419,0.938,0.419,1.479c0,0.508-0.123,0.969-0.367,1.383
		c-0.244,0.416-0.606,0.754-1.082,1.011c0.59,0.202,1.041,0.438,1.364,0.709c0.32,0.27,0.564,0.598,0.74,0.983
		c0.179,0.383,0.267,0.801,0.267,1.252c0,0.912-0.334,1.687-1.002,2.318c-0.668,0.633-1.562,0.949-2.683,0.949h-3.119V175.043z
		 M338.959,176.158v3.647h0.647c0.791,0,1.372-0.073,1.743-0.221c0.371-0.145,0.668-0.377,0.882-0.696
		c0.219-0.318,0.325-0.671,0.325-1.058c0-0.522-0.18-0.93-0.545-1.227c-0.365-0.295-0.942-0.445-1.739-0.445H338.959z
		 M338.959,180.951v4.369h1.409c0.828,0,1.438-0.084,1.822-0.244c0.389-0.162,0.7-0.418,0.938-0.764
		c0.229-0.347,0.348-0.718,0.348-1.121c0-0.506-0.163-0.949-0.497-1.328c-0.328-0.373-0.783-0.633-1.359-0.773
		c-0.389-0.092-1.058-0.139-2.021-0.139H338.959z"/>
	<path clip-path="url(#SVGID_4_)" fill="#566EA2" d="M351.027,172.556c0.924,0,1.715,0.337,2.377,1.007
		c0.662,0.675,0.989,1.488,0.989,2.441c0,0.939-0.323,1.744-0.979,2.408c-0.655,0.666-1.44,0.998-2.348,0.998
		c-0.938,0-1.734-0.338-2.399-1.014c-0.66-0.679-0.99-1.501-0.99-2.472c0-0.926,0.326-1.723,0.981-2.381
		C349.316,172.885,350.103,172.556,351.027,172.556 M348.39,181.23h5.271v21.066h-5.271V181.23z"/>
	<rect x="191.843" y="304.162" clip-path="url(#SVGID_4_)" fill="#566EA2" width="5.369" height="28.479"/>
	<path clip-path="url(#SVGID_4_)" fill="#566EA2" d="M208.053,305.393l5.298,11.389h-1.228l-1.785-3.748h-4.896l-1.769,3.748h-1.269
		l5.369-11.389H208.053z M207.91,307.811l-1.949,4.123h3.885L207.91,307.811z"/>
	<path clip-path="url(#SVGID_4_)" fill="#F56E6E" d="M219.242,302.902c0.924,0,1.716,0.34,2.379,1.01
		c0.656,0.672,0.99,1.482,0.99,2.439c0,0.941-0.33,1.746-0.985,2.41c-0.654,0.664-1.437,1-2.345,1c-0.94,0-1.739-0.342-2.399-1.021
		c-0.66-0.674-0.994-1.5-0.994-2.469c0-0.928,0.332-1.723,0.985-2.377C217.527,303.234,218.316,302.902,219.242,302.902
		 M216.605,311.578h5.272v21.063h-5.272V311.578z"/>
	<path clip-path="url(#SVGID_4_)" fill="#F56E6E" d="M331.423,302.904c0.924,0,1.717,0.338,2.377,1.008s0.991,1.482,0.991,2.439
		c0,0.941-0.329,1.746-0.981,2.408c-0.651,0.666-1.437,1.002-2.35,1.002c-0.935,0-1.734-0.342-2.394-1.021
		c-0.664-0.674-0.994-1.5-0.994-2.471c0-0.926,0.33-1.719,0.981-2.375C329.708,303.234,330.5,302.904,331.423,302.904
		 M328.787,311.578h5.272v21.062h-5.272V311.578z"/>
	<path clip-path="url(#SVGID_4_)" fill="#566EA2" d="M355.923,302.904c0.922,0,1.717,0.338,2.379,1.008
		c0.658,0.67,0.99,1.482,0.99,2.439c0,0.941-0.33,1.746-0.984,2.408c-0.651,0.666-1.437,1.002-2.348,1.002
		c-0.933,0-1.734-0.342-2.396-1.021c-0.66-0.674-0.992-1.5-0.992-2.471c0-0.926,0.328-1.719,0.981-2.375
		C354.208,303.234,355,302.904,355.923,302.904 M353.287,311.578h5.271v21.062h-5.271V311.578z"/>
	<polygon clip-path="url(#SVGID_4_)" fill="#C4C4C4" points="102.059,101.19 17.206,16.112 18.62,14.692 103.472,99.772 	"/>
</g>
</svg>
