<?xml version="1.0" encoding="utf-8"?>
<!-- Generator: Adobe Illustrator 15.1.0, SVG Export Plug-In  -->
<!DOCTYPE svg PUBLIC "-//W3C//DTD SVG 1.1//EN" "http://www.w3.org/Graphics/SVG/1.1/DTD/svg11.dtd" [
	<!ENTITY ns_flows "http://ns.adobe.com/Flows/1.0/">
]>
<svg version="1.1"
	 xmlns="http://www.w3.org/2000/svg" xmlns:xlink="http://www.w3.org/1999/xlink" xmlns:a="http://ns.adobe.com/AdobeSVGViewerExtensions/3.0/"
	 x="0px" y="0px" width="104px" height="40px" viewBox="0.692 9.89 104 40" enable-background="new 0.692 9.89 104 40"
	 xml:space="preserve">
<defs>
</defs>
<g>
	<defs>
		<rect id="SVGID_1_" width="105.344" height="60.199"/>
	</defs>
	<clipPath id="SVGID_2_">
		<use xlink:href="#SVGID_1_"  overflow="visible"/>
	</clipPath>
	<path clip-path="url(#SVGID_2_)" fill="#231815" d="M51.232,38.781l-0.295,0.277c-0.213-0.207-0.443-0.365-0.695-0.475
		c-0.251-0.107-0.496-0.158-0.736-0.158c-0.296,0-0.58,0.072-0.848,0.217c-0.269,0.148-0.478,0.344-0.625,0.592
		c-0.147,0.254-0.221,0.514-0.221,0.795c0,0.283,0.074,0.557,0.228,0.811c0.153,0.258,0.364,0.461,0.636,0.607
		c0.27,0.143,0.564,0.219,0.887,0.219c0.389,0,0.72-0.111,0.989-0.33c0.27-0.221,0.431-0.506,0.479-0.855h-1.207v-0.363h1.631
		c-0.004,0.582-0.178,1.047-0.521,1.391c-0.344,0.348-0.804,0.518-1.379,0.518c-0.702,0-1.257-0.238-1.664-0.715
		c-0.314-0.367-0.471-0.791-0.471-1.271c0-0.359,0.09-0.693,0.269-1.002c0.181-0.309,0.428-0.551,0.743-0.725
		c0.314-0.174,0.668-0.262,1.064-0.262c0.32,0,0.623,0.059,0.906,0.172C50.685,38.337,50.961,38.525,51.232,38.781"/>
	<polygon clip-path="url(#SVGID_2_)" fill="#231815" points="53.788,38.144 55.954,38.144 55.954,38.515 54.165,38.515 
		54.165,39.703 55.938,39.703 55.938,40.074 54.165,40.074 54.165,41.558 55.938,41.558 55.938,41.929 53.788,41.929 	"/>
	<polygon clip-path="url(#SVGID_2_)" fill="#231815" points="58.221,41.929 58.221,38.144 58.305,38.144 60.823,41.042 
		60.823,38.144 61.198,38.144 61.198,41.929 61.112,41.929 58.614,39.064 58.614,41.929 	"/>
	<path clip-path="url(#SVGID_2_)" fill="#231815" d="M65.532,38.05c0.574,0,1.055,0.191,1.439,0.574
		c0.387,0.381,0.58,0.852,0.58,1.414c0,0.551-0.193,1.021-0.578,1.41c-0.385,0.383-0.855,0.576-1.41,0.576
		c-0.561,0-1.035-0.193-1.422-0.574c-0.387-0.387-0.578-0.852-0.578-1.398c0-0.359,0.088-0.699,0.264-1.008
		c0.176-0.314,0.416-0.553,0.719-0.73C64.85,38.138,65.18,38.05,65.532,38.05 M65.551,38.417c-0.283,0-0.549,0.074-0.799,0.221
		c-0.25,0.143-0.447,0.34-0.586,0.588c-0.141,0.246-0.213,0.521-0.213,0.826c0,0.451,0.156,0.83,0.469,1.141
		c0.314,0.311,0.688,0.465,1.129,0.465c0.293,0,0.563-0.068,0.814-0.211c0.25-0.143,0.443-0.34,0.584-0.586
		c0.141-0.25,0.209-0.521,0.209-0.824c0-0.301-0.068-0.572-0.209-0.816c-0.141-0.242-0.336-0.439-0.592-0.582
		C66.106,38.492,65.834,38.417,65.551,38.417"/>
	<polygon clip-path="url(#SVGID_2_)" fill="#231815" points="69.745,41.929 70.282,38.144 70.342,38.144 71.885,41.253 
		73.417,38.144 73.473,38.144 74.016,41.929 73.647,41.929 73.272,39.226 71.934,41.929 71.833,41.929 70.479,39.207 70.112,41.929 
			"/>
	<rect x="76.319" y="38.144" clip-path="url(#SVGID_2_)" fill="#231815" width="0.377" height="3.785"/>
	<path clip-path="url(#SVGID_2_)" fill="#231815" d="M82.7,38.849l-0.299,0.229c-0.166-0.213-0.363-0.375-0.594-0.486
		s-0.484-0.166-0.76-0.166c-0.303,0-0.582,0.072-0.84,0.215c-0.256,0.146-0.455,0.342-0.598,0.584
		c-0.141,0.246-0.211,0.521-0.211,0.826c0,0.463,0.156,0.846,0.473,1.154c0.316,0.311,0.717,0.463,1.197,0.463
		c0.529,0,0.973-0.207,1.332-0.621l0.299,0.227c-0.189,0.238-0.424,0.426-0.707,0.555c-0.283,0.131-0.598,0.197-0.945,0.197
		c-0.664,0-1.186-0.221-1.566-0.66c-0.322-0.371-0.48-0.822-0.48-1.35c0-0.553,0.193-1.02,0.582-1.4
		c0.387-0.375,0.873-0.566,1.459-0.566c0.354,0,0.672,0.07,0.957,0.213C82.284,38.402,82.516,38.595,82.7,38.849"/>
	<path clip-path="url(#SVGID_2_)" fill="#231815" d="M84.676,41.224l0.322-0.191c0.225,0.418,0.486,0.625,0.785,0.625
		c0.123,0,0.244-0.029,0.357-0.09c0.111-0.057,0.197-0.139,0.254-0.234c0.057-0.102,0.088-0.205,0.088-0.318
		c0-0.127-0.043-0.252-0.129-0.373c-0.117-0.166-0.336-0.371-0.65-0.607c-0.316-0.238-0.514-0.41-0.59-0.516
		c-0.133-0.182-0.199-0.373-0.199-0.58c0-0.166,0.039-0.314,0.117-0.451c0.08-0.135,0.191-0.242,0.336-0.32
		c0.143-0.08,0.301-0.119,0.467-0.119c0.18,0,0.346,0.045,0.502,0.135c0.154,0.086,0.318,0.25,0.492,0.486l-0.309,0.236
		c-0.143-0.189-0.266-0.314-0.365-0.375c-0.102-0.059-0.209-0.088-0.328-0.088c-0.152,0-0.277,0.047-0.373,0.137
		c-0.1,0.094-0.146,0.207-0.146,0.344c0,0.082,0.016,0.16,0.051,0.238c0.033,0.08,0.096,0.162,0.188,0.256
		c0.051,0.047,0.213,0.172,0.49,0.375c0.326,0.242,0.553,0.457,0.674,0.646s0.184,0.379,0.184,0.568
		c0,0.275-0.104,0.512-0.313,0.715s-0.463,0.303-0.762,0.303c-0.23,0-0.438-0.059-0.627-0.184
		C85.006,41.718,84.834,41.511,84.676,41.224"/>
	<path clip-path="url(#SVGID_2_)" fill="#888888" d="M55.182,26.828l-0.797,1.426l-0.156-0.086c0.064-0.162,0.096-0.266,0.096-0.305
		c0-0.112-0.139-0.232-0.414-0.361c-0.746-0.347-1.539-0.52-2.375-0.52c-0.688,0-1.289,0.128-1.797,0.381
		c-0.248,0.124-0.441,0.287-0.584,0.486c-0.145,0.197-0.216,0.407-0.216,0.627c0,0.185,0.057,0.358,0.167,0.523
		c0.113,0.162,0.26,0.285,0.44,0.365c0.201,0.093,0.438,0.156,0.712,0.191c0.273,0.035,0.719,0.061,1.336,0.08
		c0.854,0.026,1.469,0.064,1.836,0.119c0.367,0.053,0.672,0.145,0.91,0.277c0.631,0.35,0.947,0.884,0.947,1.595
		c0,0.68-0.287,1.24-0.859,1.672c-0.635,0.488-1.512,0.732-2.627,0.732c-0.643,0-1.204-0.066-1.684-0.195
		c-0.479-0.127-1.053-0.365-1.719-0.709c-0.185-0.086-0.294-0.127-0.328-0.127c-0.056,0-0.144,0.064-0.264,0.195l-0.148-0.092
		l0.834-1.387l0.158,0.09c-0.072,0.145-0.105,0.246-0.105,0.295c0,0.119,0.237,0.301,0.713,0.549
		c0.429,0.221,0.84,0.383,1.235,0.479s0.827,0.146,1.292,0.146c0.939,0,1.654-0.205,2.143-0.613
		c0.322-0.273,0.482-0.596,0.482-0.973c0-0.492-0.275-0.834-0.828-1.022c-0.18-0.063-0.363-0.104-0.557-0.119
		c-0.189-0.016-0.734-0.041-1.633-0.074c-0.639-0.027-1.141-0.072-1.502-0.144c-0.363-0.068-0.685-0.186-0.967-0.344
		c-0.266-0.146-0.475-0.352-0.629-0.618c-0.154-0.265-0.232-0.554-0.232-0.866c0-0.535,0.201-0.993,0.604-1.377
		c0.297-0.279,0.71-0.5,1.233-0.659c0.524-0.161,1.099-0.241,1.726-0.241c0.508,0,0.981,0.05,1.418,0.15
		c0.439,0.1,0.932,0.273,1.482,0.516c0.123,0.054,0.197,0.078,0.229,0.078c0.066,0,0.158-0.073,0.273-0.223L55.182,26.828z"/>
	<path clip-path="url(#SVGID_2_)" fill="#888888" d="M62.7,26.227c1.346,0,2.426,0.348,3.25,1.043
		c0.461,0.387,0.807,0.861,1.037,1.422c0.189,0.459,0.287,0.955,0.287,1.486c0,0.716-0.209,1.388-0.621,2.015
		c-0.455,0.693-1.086,1.191-1.893,1.498c-0.604,0.227-1.285,0.342-2.047,0.342c-1.336,0-2.414-0.35-3.232-1.043
		c-0.457-0.393-0.805-0.865-1.039-1.422c-0.188-0.455-0.283-0.936-0.283-1.443c0-0.746,0.205-1.434,0.615-2.064
		c0.445-0.682,1.076-1.178,1.895-1.492C61.243,26.352,61.92,26.238,62.7,26.227 M62.7,26.982c-1.143,0-2.043,0.317-2.709,0.951
		c-0.609,0.582-0.916,1.313-0.916,2.191c0,0.886,0.307,1.621,0.916,2.201c0.662,0.635,1.566,0.951,2.723,0.951
		s2.066-0.316,2.73-0.951c0.609-0.58,0.912-1.301,0.912-2.156c0-0.924-0.303-1.67-0.912-2.236c-0.363-0.338-0.754-0.577-1.17-0.713
		C63.813,27.066,63.29,26.986,62.7,26.982"/>
	<path clip-path="url(#SVGID_2_)" fill="#888888" d="M71.762,27.284v2.546h3.301c0.156,0,0.266-0.021,0.332-0.069
		c0.063-0.046,0.113-0.142,0.146-0.278h0.182v1.412h-0.182c-0.033-0.135-0.084-0.229-0.146-0.278
		c-0.066-0.047-0.176-0.07-0.332-0.07h-3.301v2.848c0,0.152,0.023,0.262,0.07,0.322c0.045,0.061,0.141,0.111,0.285,0.148v0.176
		h-1.586v-0.176c0.141-0.037,0.234-0.088,0.283-0.148c0.047-0.061,0.072-0.17,0.072-0.322v-6.177c0-0.152-0.025-0.262-0.072-0.326
		c-0.049-0.063-0.143-0.112-0.283-0.145V26.57h6.184c0.156,0,0.268-0.023,0.33-0.07c0.068-0.047,0.115-0.14,0.148-0.279h0.182v1.414
		h-0.182c-0.033-0.142-0.08-0.234-0.148-0.283c-0.063-0.045-0.174-0.067-0.33-0.067H71.762z"/>
	<path clip-path="url(#SVGID_2_)" fill="#888888" d="M80.803,33.367v-6.425c0-0.159-0.023-0.272-0.072-0.34
		c-0.047-0.066-0.143-0.117-0.283-0.15V26.27h1.588v0.182c-0.141,0.037-0.236,0.088-0.285,0.154
		c-0.047,0.064-0.072,0.177-0.072,0.336v6.425c0,0.16,0.023,0.271,0.07,0.336s0.143,0.115,0.287,0.154v0.182h-1.588v-0.182
		c0.145-0.039,0.24-0.09,0.287-0.154S80.803,33.527,80.803,33.367"/>
	<path clip-path="url(#SVGID_2_)" fill="#888888" d="M88.774,33.023l2.469-5.751c0.104-0.236,0.154-0.412,0.154-0.525
		c0-0.143-0.107-0.242-0.324-0.295V26.27h1.723v0.182c-0.174,0.053-0.295,0.123-0.359,0.211C92.372,26.748,92.25,27,92.071,27.42
		l-2.455,5.646c-0.092,0.225-0.139,0.387-0.139,0.486c0,0.156,0.105,0.26,0.32,0.305v0.182h-2.123v-0.182
		c0.211-0.045,0.318-0.15,0.318-0.32c0-0.09-0.047-0.246-0.143-0.471l-2.502-5.818c-0.137-0.316-0.24-0.514-0.309-0.598
		c-0.064-0.084-0.182-0.15-0.35-0.199V26.27h1.82v0.182c-0.219,0.053-0.33,0.152-0.33,0.295c0,0.131,0.049,0.305,0.145,0.525
		L88.774,33.023z"/>
	<path clip-path="url(#SVGID_2_)" fill="#888888" d="M100.842,31.863H96.77l-0.666,1.471c-0.064,0.141-0.096,0.238-0.096,0.297
		c0,0.113,0.109,0.188,0.326,0.227v0.182h-1.697v-0.182c0.152-0.025,0.27-0.084,0.352-0.17c0.078-0.086,0.184-0.277,0.313-0.57
		l2.789-6.144c0.064-0.145,0.1-0.246,0.1-0.3c0-0.099-0.092-0.173-0.273-0.222V26.27h1.852v0.182
		c-0.184,0.061-0.275,0.139-0.275,0.238c0,0.043,0.035,0.139,0.102,0.283l2.668,5.921c0.197,0.436,0.33,0.693,0.389,0.771
		c0.064,0.074,0.203,0.139,0.416,0.191v0.182h-1.809v-0.182c0.215-0.031,0.322-0.113,0.322-0.25c0-0.061-0.041-0.178-0.121-0.352
		L100.842,31.863z M100.51,31.121l-1.705-3.832L97.1,31.121H100.51z"/>
	<rect x="20.457" y="11.732" clip-path="url(#SVGID_2_)" fill="#888888" width="0.381" height="35.379"/>
	<path clip-path="url(#SVGID_2_)" fill="#888888" d="M16.811,12.122v6.614c0,2.116,1.721,3.839,3.836,3.839
		c2.117,0,3.838-1.723,3.838-3.839v-6.614h-0.379v6.614c0,1.907-1.551,3.458-3.459,3.458c-1.904,0-3.455-1.551-3.455-3.458v-6.614
		H16.811z"/>
	<path clip-path="url(#SVGID_2_)" fill="#888888" d="M7.47,17.272l8.341,8.06c0.748,0.732,1.158,1.711,1.158,2.755l-0.305,5.815
		h0.38l0.306-5.815c0-1.147-0.452-2.222-1.271-3.026c0.002,0.001-8.34-8.057-8.34-8.057L7.47,17.272z"/>
	<path clip-path="url(#SVGID_2_)" fill="#888888" d="M3.562,30.059h9.241c2.129,0,3.862,1.73,3.862,3.861l-0.759,10.395
		c-0.095,1.094-0.412,2.02-1.156,2.754c-0.001,0-2.371,2.377-2.371,2.377l0.27,0.27l2.369-2.377c0.818-0.805,1.154-1.93,1.271-3.023
		l0.756-10.395c0-2.338-1.902-4.244-4.242-4.244H3.562V30.059z"/>
	<path clip-path="url(#SVGID_2_)" fill="#888888" d="M13.056,13.264v5.23c0,2.129-1.73,3.86-3.862,3.86H3.891v0.384h5.302
		c2.34,0,4.245-1.905,4.245-4.244v-5.23H13.056z"/>
	<path clip-path="url(#SVGID_2_)" fill="#888888" d="M2.605,33.714H8.6c2.116,0,3.837-1.721,3.837-3.837
		c0-2.117-1.721-3.837-3.837-3.837H2.652v0.38H8.6c1.905,0,3.456,1.551,3.456,3.457c0,1.906-1.551,3.457-3.456,3.457H2.605V33.714z"
		/>
	<path clip-path="url(#SVGID_2_)" fill="#888888" d="M33.747,17.272l-8.344,8.06c-0.746,0.732-1.156,1.711-1.156,2.755l0.304,5.815
		h-0.38l-0.306-5.815c0-1.147,0.452-2.222,1.271-3.026c-0.002,0.001,8.34-8.057,8.34-8.057L33.747,17.272z"/>
	<path clip-path="url(#SVGID_2_)" fill="#888888" d="M37.654,30.059h-9.241c-2.129,0-3.862,1.73-3.862,3.861l0.76,10.395
		c0.094,1.094,0.41,2.02,1.153,2.754c0.004,0,2.374,2.377,2.374,2.377l-0.27,0.27l-2.371-2.377c-0.818-0.805-1.152-1.93-1.27-3.023
		l-0.757-10.395c0-2.338,1.903-4.244,4.242-4.244h9.241V30.059z"/>
	<path clip-path="url(#SVGID_2_)" fill="#888888" d="M28.162,13.264v5.23c0,2.129,1.732,3.86,3.86,3.86h5.304v0.384h-5.304
		c-2.34,0-4.242-1.905-4.242-4.244v-5.23H28.162z"/>
	<path clip-path="url(#SVGID_2_)" fill="#888888" d="M38.611,33.714h-5.995c-2.116,0-3.838-1.721-3.838-3.837
		c0-2.117,1.722-3.837,3.838-3.837h5.948v0.38h-5.948c-1.905,0-3.456,1.551-3.456,3.457c0,1.906,1.551,3.457,3.456,3.457h5.995
		V33.714z"/>
	<path clip-path="url(#SVGID_2_)" fill="#FBC600" d="M21.564,10.86c0.502,0.502,0.502,1.316,0,1.819c-0.5,0.501-1.314,0.501-1.816,0
		c-0.502-0.503-0.504-1.317,0-1.819C20.25,10.357,21.064,10.357,21.564,10.86"/>
	<path clip-path="url(#SVGID_2_)" fill="#8DC21F" d="M21.564,21.345c0.502,0.503,0.502,1.315,0,1.819
		c-0.5,0.501-1.314,0.501-1.816,0c-0.502-0.504-0.504-1.316,0-1.819C20.25,20.842,21.064,20.842,21.564,21.345"/>
	<path clip-path="url(#SVGID_2_)" fill="#BD0080" d="M21.564,32.98c0.502,0.502,0.502,1.314,0,1.816c-0.5,0.504-1.314,0.504-1.816,0
		c-0.502-0.502-0.504-1.314,0-1.816C20.25,32.478,21.064,32.478,21.564,32.98"/>
	<path clip-path="url(#SVGID_2_)" fill="#009FE8" d="M25.092,17.723c0.502,0.503,0.502,1.316,0,1.818
		c-0.502,0.504-1.316,0.504-1.818,0c-0.502-0.502-0.502-1.315,0-1.818C23.775,17.221,24.59,17.221,25.092,17.723"/>
	<path clip-path="url(#SVGID_2_)" fill="#BD0080" d="M17.944,17.723c0.501,0.503,0.501,1.316,0,1.818
		c-0.503,0.504-1.317,0.504-1.817,0c-0.504-0.502-0.504-1.315,0-1.818C16.627,17.221,17.441,17.221,17.944,17.723"/>
	<path clip-path="url(#SVGID_2_)" fill="#8DC21F" d="M8.589,16.301c0.502,0.502,0.502,1.316,0,1.818
		c-0.501,0.502-1.317,0.502-1.817,0c-0.502-0.502-0.503-1.316,0-1.819C7.272,15.798,8.087,15.798,8.589,16.301"/>
	<path clip-path="url(#SVGID_2_)" fill="#009FE8" d="M13.117,28.975c0.502,0.504,0.502,1.318,0,1.819
		c-0.501,0.504-1.315,0.504-1.816,0c-0.503-0.501-0.503-1.315,0-1.819C11.802,28.475,12.616,28.475,13.117,28.975"/>
	<path clip-path="url(#SVGID_2_)" fill="#E50012" d="M17.768,25.642c0.502,0.501,0.502,1.315,0,1.817s-1.316,0.502-1.818,0
		s-0.502-1.316,0-1.818S17.266,25.139,17.768,25.642"/>
	<path clip-path="url(#SVGID_2_)" fill="#BD0080" d="M4.472,28.975c0.502,0.504,0.502,1.318,0,1.819
		c-0.501,0.504-1.316,0.504-1.819,0c-0.502-0.501-0.502-1.315,0-1.819C3.155,28.475,3.97,28.475,4.472,28.975"/>
	<path clip-path="url(#SVGID_2_)" fill="#E50012" d="M32.629,16.301c-0.503,0.502-0.503,1.316,0,1.818
		c0.5,0.502,1.315,0.502,1.818,0c0.501-0.502,0.501-1.316,0-1.819C33.944,15.798,33.129,15.798,32.629,16.301"/>
	<path clip-path="url(#SVGID_2_)" fill="#8DC21F" d="M28.097,28.975c-0.501,0.504-0.501,1.318,0,1.819
		c0.503,0.504,1.316,0.504,1.821,0c0.5-0.501,0.5-1.315,0-1.819C29.413,28.475,28.6,28.475,28.097,28.975"/>
	<path clip-path="url(#SVGID_2_)" fill="#FBC600" d="M23.448,25.642c-0.501,0.501-0.501,1.315,0,1.817
		c0.503,0.502,1.316,0.502,1.819,0c0.502-0.502,0.502-1.316,0-1.818C24.765,25.139,23.951,25.139,23.448,25.642"/>
	<path clip-path="url(#SVGID_2_)" fill="#009FE8" d="M36.744,28.975c-0.5,0.504-0.5,1.318,0,1.819c0.502,0.504,1.317,0.504,1.82,0
		c0.5-0.501,0.5-1.315,0-1.819C38.062,28.475,37.246,28.475,36.744,28.975"/>
</g>
</svg>
