<?xml version="1.0" encoding="utf-8"?>
<!-- Generator: Adobe Illustrator 15.1.0, SVG Export Plug-In  -->
<!DOCTYPE svg PUBLIC "-//W3C//DTD SVG 1.1//EN" "http://www.w3.org/Graphics/SVG/1.1/DTD/svg11.dtd" [
	<!ENTITY ns_flows "http://ns.adobe.com/Flows/1.0/">
]>
<svg version="1.1"
	 xmlns="http://www.w3.org/2000/svg" xmlns:xlink="http://www.w3.org/1999/xlink" xmlns:a="http://ns.adobe.com/AdobeSVGViewerExtensions/3.0/"
	 x="0px" y="0px" width="107px" height="40px" viewBox="0.8 -0.254 107 40" enable-background="new 0.8 -0.254 107 40"
	 xml:space="preserve">
<defs>
</defs>
<g>
	<defs>
		<rect id="SVGID_1_" width="108.6" height="39.491"/>
	</defs>
	<clipPath id="SVGID_2_">
		<use xlink:href="#SVGID_1_"  overflow="visible"/>
	</clipPath>
	<path clip-path="url(#SVGID_2_)" fill-rule="evenodd" clip-rule="evenodd" fill="#EC7274" d="M32.613,19.746L32.613,19.746
		l3.549-3.55c0.205-0.204,0.265-0.512,0.154-0.778c-0.109-0.269-0.37-0.442-0.66-0.442h-4.357l2.836-2.833
		c0.205-0.205,0.266-0.512,0.156-0.78c-0.111-0.267-0.373-0.439-0.661-0.439h-5.366V5.557c0-0.291-0.174-0.551-0.441-0.661
		c-0.268-0.111-0.575-0.05-0.779,0.154L24.21,7.884V3.529c0-0.287-0.173-0.549-0.44-0.661c-0.269-0.109-0.576-0.047-0.781,0.157
		l-3.547,3.548l-3.548-3.548c-0.204-0.204-0.512-0.266-0.78-0.157c-0.267,0.112-0.441,0.374-0.441,0.661v4.355L11.838,5.05
		c-0.202-0.204-0.51-0.265-0.778-0.154c-0.268,0.11-0.442,0.37-0.442,0.661v5.366H5.253c-0.288,0-0.55,0.172-0.661,0.439
		c-0.111,0.268-0.048,0.576,0.155,0.78l2.833,2.833H3.227c-0.29,0-0.549,0.173-0.66,0.442c-0.111,0.266-0.051,0.574,0.154,0.778
		l3.548,3.55l-3.548,3.548c-0.205,0.205-0.265,0.511-0.154,0.78c0.111,0.267,0.371,0.439,0.66,0.439h4.354l-2.833,2.834
		c-0.204,0.205-0.266,0.512-0.155,0.78c0.111,0.265,0.373,0.44,0.661,0.44h5.365v5.366c0,0.288,0.175,0.55,0.442,0.658
		c0.267,0.111,0.576,0.053,0.778-0.152l2.833-2.835v4.357c0,0.287,0.175,0.549,0.441,0.659c0.269,0.112,0.577,0.049,0.78-0.155
		l3.548-3.548l3.547,3.548c0.206,0.204,0.513,0.268,0.781,0.155c0.267-0.11,0.44-0.372,0.44-0.659v-4.357l2.834,2.835
		c0.204,0.205,0.511,0.264,0.779,0.152c0.267-0.108,0.441-0.37,0.441-0.658v-5.366h5.366c0.288,0,0.549-0.176,0.661-0.44
		c0.11-0.269,0.049-0.575-0.156-0.78l-2.833-2.834h4.354c0.29,0,0.551-0.173,0.66-0.439c0.111-0.27,0.051-0.575-0.154-0.78
		L32.613,19.746z M25.018,20.25l2.833,2.834h-4.058l-3.341-3.338l3.341-3.34h4.058l-2.833,2.833
		c-0.134,0.135-0.209,0.316-0.209,0.505C24.809,19.935,24.884,20.118,25.018,20.25 M13.865,20.25c0.135-0.132,0.21-0.314,0.21-0.504
		S14,19.374,13.865,19.24l-2.832-2.834h-0.002h0.002h4.056l3.34,3.34l-3.34,3.338h-4.056L13.865,20.25z M22.78,11.339v4.057
		l-3.338,3.337l-3.339-3.337v-4.057l2.831,2.831c0.135,0.135,0.316,0.21,0.508,0.21c0.189,0,0.372-0.075,0.506-0.21L22.78,11.339z
		 M19.948,25.32c-0.14-0.139-0.323-0.208-0.506-0.208c-0.183,0-0.368,0.069-0.505,0.208l-2.833,2.833v-4.06l3.339-3.336l3.338,3.339
		v4.057L19.948,25.32z M26.834,7.284L26.834,7.284v4.354c0,0.396,0.318,0.715,0.715,0.715h4.355l-2.624,2.624h-5.07l0.002-5.07
		H24.21h0.002L26.834,7.284z M16.103,5.257l2.831,2.832c0.135,0.134,0.316,0.21,0.508,0.21c0.189,0,0.372-0.076,0.506-0.21
		l2.832-2.832v4.056l-3.338,3.339l-3.339-3.339V5.257z M6.979,12.353h4.355c0.396,0,0.715-0.32,0.715-0.715V7.284l2.623,2.624v5.068
		h-5.07h0h0L6.979,12.353z M4.953,23.083l2.832-2.834c0.136-0.132,0.21-0.314,0.21-0.504s-0.075-0.372-0.21-0.506l-2.832-2.834
		h4.058l3.338,3.34l-3.338,3.338H4.953z M12.049,32.208L12.049,32.208v-4.356c0-0.394-0.319-0.713-0.715-0.713H6.979l2.623-2.625
		h5.07v5.069L12.049,32.208z M22.78,34.236l-2.832-2.834c-0.28-0.279-0.734-0.279-1.012,0l-2.833,2.834v-4.06l3.339-3.338
		l3.338,3.338V34.236z M31.904,27.138h-4.355c-0.396,0-0.715,0.319-0.715,0.713v4.356l-2.622-2.625H24.21h0.002v-5.069h5.069
		L31.904,27.138z M33.93,23.083h-4.06l-3.338-3.338l3.338-3.34h4.06l-2.834,2.833c-0.133,0.135-0.209,0.316-0.209,0.505
		c0,0.192,0.076,0.375,0.209,0.506L33.93,23.083z"/>
	<path clip-path="url(#SVGID_2_)" fill="#656464" d="M43.6,26.416v-4.178h0.765c0.553,0,0.953,0.049,1.203,0.149
		c0.357,0.142,0.638,0.39,0.84,0.738c0.2,0.352,0.301,0.768,0.301,1.253c0,0.419-0.079,0.786-0.239,1.105
		c-0.161,0.318-0.368,0.553-0.623,0.705c-0.255,0.151-0.613,0.227-1.073,0.227H43.6z M43.954,26.021h0.427
		c0.51,0,0.863-0.035,1.061-0.107c0.278-0.103,0.497-0.287,0.656-0.553c0.158-0.267,0.238-0.59,0.238-0.975
		c0-0.402-0.085-0.747-0.258-1.034c-0.172-0.286-0.413-0.48-0.72-0.587c-0.231-0.08-0.612-0.118-1.142-0.118h-0.261V26.021z"/>
	<rect x="47.115" y="22.238" clip-path="url(#SVGID_2_)" fill="#656464" width="0.368" height="4.178"/>
	<path clip-path="url(#SVGID_2_)" fill="#656464" d="M49.581,22.238l1.721,4.178h-0.397l-0.582-1.375h-1.59l-0.575,1.375h-0.412
		l1.744-4.178H49.581z M49.534,23.125l-0.632,1.513h1.262L49.534,23.125z"/>
	<polygon clip-path="url(#SVGID_2_)" fill="#656464" points="51.62,26.416 51.62,22.238 51.701,22.238 54.156,25.441 54.156,22.238 
		54.52,22.238 54.52,26.416 54.438,26.416 52,23.252 52,26.416 	"/>
	<polygon clip-path="url(#SVGID_2_)" fill="#656464" points="54.796,22.647 54.796,22.238 56.818,22.238 56.818,22.647 
		55.994,22.647 55.994,26.416 55.619,26.416 55.619,22.647 	"/>
	<polygon clip-path="url(#SVGID_2_)" fill="#656464" points="57.088,22.238 57.457,22.238 57.457,23.99 59.336,23.99 59.336,22.238 
		59.707,22.238 59.707,26.416 59.336,26.416 59.336,24.4 57.457,24.4 57.457,26.416 57.088,26.416 	"/>
	<path clip-path="url(#SVGID_2_)" fill="#656464" d="M60.359,22.238h0.369v2.522c0,0.299,0.004,0.484,0.016,0.559
		c0.018,0.165,0.059,0.303,0.127,0.414c0.066,0.111,0.17,0.203,0.309,0.277c0.139,0.075,0.279,0.113,0.42,0.113
		c0.121,0,0.238-0.029,0.352-0.088c0.111-0.059,0.205-0.141,0.279-0.245c0.076-0.103,0.133-0.23,0.166-0.378
		c0.025-0.105,0.039-0.324,0.039-0.652v-2.522h0.367v2.522c0,0.373-0.031,0.674-0.096,0.904s-0.193,0.43-0.387,0.602
		c-0.193,0.17-0.428,0.256-0.701,0.256c-0.299,0-0.553-0.081-0.766-0.241c-0.213-0.161-0.354-0.374-0.426-0.642
		c-0.047-0.161-0.068-0.455-0.068-0.879V22.238z"/>
	<path clip-path="url(#SVGID_2_)" fill="#656464" d="M63.074,25.637l0.313-0.213c0.221,0.461,0.477,0.69,0.766,0.69
		c0.123,0,0.24-0.032,0.348-0.098c0.109-0.065,0.193-0.152,0.25-0.264c0.057-0.109,0.086-0.226,0.086-0.349
		c0-0.141-0.043-0.278-0.125-0.412c-0.117-0.186-0.328-0.409-0.635-0.67c-0.307-0.265-0.498-0.453-0.574-0.571
		c-0.131-0.197-0.195-0.41-0.195-0.639c0-0.183,0.039-0.348,0.115-0.498c0.078-0.149,0.186-0.267,0.324-0.354
		c0.141-0.087,0.293-0.13,0.457-0.13c0.174,0,0.336,0.051,0.488,0.147c0.15,0.097,0.311,0.275,0.48,0.538l-0.303,0.259
		c-0.137-0.209-0.256-0.346-0.354-0.413c-0.1-0.067-0.205-0.098-0.32-0.098c-0.15,0-0.27,0.05-0.365,0.152
		c-0.096,0.101-0.143,0.228-0.143,0.377c0,0.093,0.018,0.18,0.051,0.266c0.033,0.084,0.096,0.178,0.184,0.277
		c0.049,0.055,0.207,0.193,0.477,0.417c0.318,0.269,0.539,0.505,0.658,0.714c0.117,0.21,0.178,0.418,0.178,0.628
		c0,0.303-0.102,0.565-0.305,0.79c-0.205,0.224-0.449,0.335-0.742,0.335c-0.225,0-0.428-0.068-0.609-0.204
		C63.395,26.182,63.227,25.956,63.074,25.637"/>
	<polygon clip-path="url(#SVGID_2_)" fill="#656464" points="66.756,26.416 67.283,22.238 67.342,22.238 68.844,25.667 
		70.33,22.238 70.391,22.238 70.922,26.416 70.559,26.416 70.193,23.427 68.889,26.416 68.795,26.416 67.475,23.406 67.111,26.416 	
		"/>
	<polygon clip-path="url(#SVGID_2_)" fill="#656464" points="71.391,22.238 73.506,22.238 73.506,22.647 71.76,22.647 71.76,23.955 
		73.492,23.955 73.492,24.363 71.76,24.363 71.76,26.006 73.492,26.006 73.492,26.416 71.391,26.416 	"/>
	<path clip-path="url(#SVGID_2_)" fill="#656464" d="M73.887,26.416v-4.178h0.766c0.553,0,0.953,0.049,1.203,0.149
		c0.357,0.142,0.637,0.39,0.84,0.738c0.201,0.352,0.301,0.768,0.301,1.253c0,0.419-0.08,0.786-0.24,1.105
		c-0.158,0.318-0.367,0.553-0.621,0.705c-0.256,0.151-0.613,0.227-1.072,0.227H73.887z M74.242,26.021h0.426
		c0.51,0,0.865-0.035,1.063-0.107c0.275-0.103,0.494-0.287,0.654-0.553c0.158-0.267,0.238-0.59,0.238-0.975
		c0-0.402-0.086-0.747-0.258-1.034c-0.174-0.286-0.414-0.48-0.721-0.587c-0.23-0.08-0.613-0.118-1.143-0.118h-0.26V26.021z"/>
	<rect x="77.402" y="22.238" clip-path="url(#SVGID_2_)" fill="#656464" width="0.367" height="4.178"/>
	<path clip-path="url(#SVGID_2_)" fill="#656464" d="M81.797,23.013l-0.291,0.253c-0.16-0.236-0.354-0.417-0.578-0.538
		c-0.225-0.124-0.471-0.184-0.74-0.184c-0.295,0-0.568,0.08-0.82,0.239c-0.25,0.159-0.443,0.375-0.582,0.645
		c-0.137,0.271-0.209,0.573-0.209,0.911c0,0.51,0.156,0.934,0.465,1.275c0.309,0.341,0.697,0.512,1.168,0.512
		c0.518,0,0.949-0.229,1.297-0.688l0.291,0.25c-0.184,0.266-0.414,0.469-0.689,0.614c-0.273,0.146-0.58,0.219-0.92,0.219
		c-0.646,0-1.156-0.244-1.529-0.731c-0.313-0.409-0.469-0.907-0.469-1.488c0-0.61,0.189-1.126,0.568-1.545
		c0.377-0.416,0.854-0.626,1.424-0.626c0.346,0,0.656,0.076,0.934,0.231S81.619,22.735,81.797,23.013"/>
	<path clip-path="url(#SVGID_2_)" fill="#656464" d="M83.789,22.238l1.721,4.178h-0.398l-0.58-1.375h-1.59l-0.574,1.375h-0.412
		l1.744-4.178H83.789z M83.742,23.125l-0.631,1.513h1.262L83.742,23.125z"/>
	<polygon clip-path="url(#SVGID_2_)" fill="#656464" points="85.826,22.238 86.195,22.238 86.195,26.012 87.613,26.012 
		87.613,26.416 85.826,26.416 	"/>
	<path clip-path="url(#SVGID_2_)" fill="#656464" d="M92.67,22.938l-0.287,0.309c-0.205-0.23-0.43-0.404-0.676-0.521
		c-0.246-0.12-0.484-0.179-0.715-0.179c-0.291,0-0.566,0.08-0.828,0.241s-0.465,0.38-0.609,0.655
		c-0.143,0.275-0.215,0.567-0.215,0.874c0,0.313,0.074,0.613,0.223,0.896c0.148,0.282,0.355,0.505,0.619,0.668
		c0.262,0.161,0.549,0.243,0.861,0.243c0.379,0,0.701-0.123,0.963-0.364c0.264-0.243,0.42-0.558,0.469-0.944h-1.178v-0.402h1.59
		c-0.002,0.646-0.17,1.159-0.506,1.538c-0.336,0.38-0.785,0.569-1.348,0.569c-0.684,0-1.223-0.263-1.621-0.789
		c-0.307-0.406-0.459-0.874-0.459-1.405c0-0.397,0.088-0.765,0.264-1.107c0.176-0.341,0.416-0.607,0.723-0.799
		c0.307-0.192,0.652-0.289,1.039-0.289c0.313,0,0.607,0.065,0.883,0.191C92.137,22.451,92.406,22.658,92.67,22.938"/>
	<path clip-path="url(#SVGID_2_)" fill="#656464" d="M93.354,22.238h0.736c0.408,0,0.688,0.019,0.832,0.056
		c0.219,0.059,0.396,0.18,0.535,0.365c0.137,0.188,0.205,0.417,0.205,0.69c0,0.227-0.047,0.429-0.143,0.601
		c-0.094,0.172-0.229,0.303-0.404,0.39c-0.178,0.089-0.418,0.135-0.729,0.137l1.328,1.939h-0.457l-1.326-1.939h-0.209v1.939h-0.369
		V22.238z M93.723,22.647v1.421l0.637,0.004c0.244,0,0.428-0.026,0.547-0.079c0.117-0.053,0.209-0.138,0.275-0.255
		c0.066-0.114,0.1-0.246,0.1-0.392c0-0.139-0.035-0.266-0.102-0.382c-0.066-0.113-0.154-0.196-0.264-0.244
		c-0.109-0.05-0.289-0.073-0.543-0.073H93.723z"/>
	<path clip-path="url(#SVGID_2_)" fill="#656464" d="M97.953,22.131c0.559,0,1.027,0.212,1.404,0.634
		c0.377,0.424,0.564,0.942,0.564,1.562c0,0.609-0.188,1.129-0.564,1.556c-0.375,0.426-0.834,0.639-1.375,0.639
		c-0.547,0-1.01-0.213-1.385-0.636c-0.377-0.425-0.564-0.938-0.564-1.542c0-0.398,0.086-0.772,0.258-1.115
		c0.17-0.343,0.404-0.61,0.701-0.805C97.287,22.229,97.607,22.131,97.953,22.131 M97.971,22.539c-0.273,0-0.533,0.08-0.777,0.241
		c-0.244,0.162-0.438,0.379-0.574,0.651s-0.205,0.577-0.205,0.912c0,0.497,0.152,0.915,0.455,1.258
		c0.305,0.342,0.672,0.514,1.102,0.514c0.287,0,0.551-0.078,0.795-0.235c0.244-0.158,0.434-0.374,0.57-0.646
		c0.137-0.273,0.205-0.576,0.205-0.91c0-0.331-0.068-0.632-0.205-0.9s-0.328-0.481-0.576-0.644
		C98.512,22.619,98.248,22.539,97.971,22.539"/>
	<path clip-path="url(#SVGID_2_)" fill="#656464" d="M100.418,22.238h0.369v2.522c0,0.299,0.004,0.484,0.016,0.559
		c0.018,0.165,0.061,0.303,0.127,0.414s0.17,0.203,0.309,0.277c0.141,0.075,0.279,0.113,0.42,0.113c0.121,0,0.238-0.029,0.352-0.088
		c0.111-0.059,0.205-0.141,0.279-0.245c0.074-0.103,0.131-0.23,0.166-0.378c0.025-0.105,0.039-0.324,0.039-0.652v-2.522h0.367v2.522
		c0,0.373-0.031,0.674-0.096,0.904s-0.193,0.43-0.387,0.602c-0.193,0.17-0.426,0.256-0.701,0.256c-0.299,0-0.553-0.081-0.766-0.241
		c-0.213-0.161-0.354-0.374-0.428-0.642c-0.043-0.161-0.066-0.455-0.066-0.879V22.238z"/>
	<path clip-path="url(#SVGID_2_)" fill="#656464" d="M103.512,22.238h0.734c0.422,0,0.707,0.021,0.854,0.061
		c0.211,0.061,0.383,0.18,0.518,0.363c0.133,0.182,0.201,0.413,0.201,0.688c0,0.279-0.066,0.509-0.197,0.688
		c-0.131,0.181-0.311,0.303-0.539,0.365c-0.166,0.047-0.48,0.068-0.938,0.068h-0.266v1.943h-0.367V22.238z M103.879,22.647v1.416
		l0.625,0.009c0.254,0,0.438-0.025,0.555-0.077s0.209-0.136,0.277-0.253c0.066-0.115,0.1-0.247,0.1-0.391
		c0-0.14-0.033-0.267-0.1-0.384c-0.068-0.115-0.156-0.199-0.266-0.247c-0.109-0.05-0.289-0.073-0.537-0.073H103.879z"/>
	<path clip-path="url(#SVGID_2_)" fill="#656464" d="M48.705,19.877h-0.533v-5.952h-0.429c-0.225,0.92-0.678,1.838-1.36,2.75
		c-0.674,0.914-1.496,1.633-2.464,2.158l-0.266-0.48c0.962-0.512,1.745-1.193,2.353-2.045c0.613-0.852,1.028-1.646,1.247-2.383
		h-3.18v-0.46h4.1v-1.993c-1.165,0.177-2.34,0.307-3.527,0.389l-0.184-0.47c2.651-0.149,5.133-0.522,7.443-1.114l0.266,0.429
		c-1.22,0.287-2.375,0.525-3.465,0.716v2.044h4.099v0.46h-3.189c0.273,0.873,0.75,1.728,1.431,2.567
		c0.683,0.838,1.406,1.445,2.169,1.82l-0.257,0.521c-0.857-0.471-1.635-1.155-2.331-2.055c-0.695-0.9-1.196-1.851-1.503-2.854
		h-0.419V19.877z"/>
	<path clip-path="url(#SVGID_2_)" fill="#656464" d="M68.621,17.137v2.75h-0.428v-0.492h-5.197v0.492h-0.428v-2.649
		c-0.523,0.185-1.07,0.345-1.637,0.482l-0.152-0.41c1.328-0.251,2.576-0.686,3.742-1.298h-3.17v-0.377h4.039v-0.553
		c-0.471,0.014-0.975,0.03-1.514,0.052c-0.504,0.018-0.992,0.029-1.461,0.029l-0.104-0.367h0.174c2.188,0,4.193-0.109,6.012-0.329
		l0.176,0.329c-0.84,0.116-1.789,0.205-2.854,0.266v0.573h4.232v0.377h-3.344c1.289,0.573,2.52,0.974,3.691,1.207l-0.162,0.408
		C69.514,17.43,68.977,17.265,68.621,17.137 M61.125,15.521l-0.305-0.328c0.471-0.477,0.705-1.157,0.705-2.044v-0.593h3.721v1.565
		h-3.414C61.744,14.639,61.508,15.105,61.125,15.521 M63.162,10.255h0.428v0.541h2.25v0.38h-2.25v0.551h1.832v0.378h-4.039v-0.378
		h1.779v-0.551h-2.137v-0.38h2.137V10.255z M61.934,12.944l-0.021,0.788h1.229v-0.788H61.934z M68.193,17.402h-5.197v0.584h5.197
		V17.402z M62.996,19.017h5.197v-0.684h-5.197V19.017z M66.045,16.012H65.82v0.807h-0.43v-0.817h-0.225
		c-0.621,0.443-1.309,0.784-2.066,1.021h5.195C67.477,16.771,66.727,16.434,66.045,16.012 M64.848,12.944h-1.318v0.788h1.318V12.944
		z M70.207,11.759v0.356h-1.166c-0.438,0-0.654-0.211-0.654-0.633v-0.521h-1.463v0.051c0,0.812-0.434,1.306-1.299,1.482
		l-0.174-0.368c0.32-0.068,0.58-0.19,0.777-0.368c0.205-0.171,0.307-0.522,0.307-1.054v-0.111h2.25v0.889
		c0,0.19,0.098,0.286,0.297,0.286L70.207,11.759z M65.666,14.499l-0.174-0.378c0.736-0.048,1.377-0.174,1.922-0.379
		c-0.367-0.211-0.734-0.5-1.104-0.869h-0.449v-0.379h3.66v0.347c-0.375,0.41-0.777,0.717-1.207,0.921
		c0.635,0.238,1.316,0.396,2.045,0.471l-0.143,0.419c-0.852-0.123-1.637-0.352-2.352-0.687
		C67.223,14.227,66.49,14.404,65.666,14.499 M68.969,12.873h-2.158c0.301,0.272,0.648,0.51,1.043,0.715
		C68.291,13.404,68.662,13.167,68.969,12.873"/>
	<path clip-path="url(#SVGID_2_)" fill="#656464" d="M77.967,15.653v-0.356h9.162v0.356h-3.416v0.604h2.506v3.62h-0.4v-0.491h-6.512
		v0.501h-0.4v-3.63h2.402v-0.604H77.967z M82.76,11.032h-4.006v3.159h4.119v0.368h-4.498v-3.885h4.385V11.032z M81.055,12.443h1.471
		v0.338h-1.523l-0.039,0.102c0.449,0.171,0.945,0.426,1.492,0.768l-0.215,0.357c-0.826-0.545-1.307-0.818-1.441-0.818
		c-0.307,0.436-0.844,0.735-1.605,0.899l-0.113-0.378c0.826-0.157,1.33-0.467,1.514-0.93h-1.463v-0.338h1.525
		c0.006-0.075,0.014-0.174,0.02-0.295c0.006-0.076,0.01-0.168,0.01-0.278h-0.809c-0.156,0.185-0.336,0.352-0.541,0.501l-0.234-0.295
		c0.359-0.233,0.643-0.561,0.848-0.983l0.35,0.144l-0.176,0.308h2.047v0.326h-1.086c-0.008,0.117-0.012,0.212-0.012,0.286
		C81.072,12.252,81.068,12.348,81.055,12.443 M81.668,16.624c-0.15,0.711-0.76,1.113-1.832,1.208l-0.162-0.368
		c0.859-0.047,1.387-0.327,1.584-0.84h-1.951v1.331h6.512v-0.41h-1.543c-0.648,0-0.973-0.256-0.973-0.767v-0.154H81.668z
		 M85.818,18.292h-6.512v0.717h6.512V18.292z M83.303,15.653h-1.594v0.604h1.594V15.653z M82.699,15.071l-0.143-0.369
		c0.826-0.169,1.455-0.371,1.893-0.603c-0.369-0.266-0.721-0.645-1.053-1.135h-0.482v-0.379h3.559
		c-0.285,0.6-0.738,1.101-1.359,1.503c0.586,0.293,1.277,0.491,2.076,0.594l-0.154,0.377c-0.832-0.13-1.584-0.375-2.258-0.736
		C84.258,14.646,83.566,14.893,82.699,15.071 M82.66,12.188c0.688-0.198,1.031-0.665,1.031-1.4v-0.154h2.199v0.849
		c0,0.231,0.125,0.348,0.379,0.348h0.91v0.357h-0.932c-0.512,0-0.766-0.231-0.766-0.695v-0.491H84.08v0.01
		c0,0.756-0.406,1.261-1.215,1.514L82.66,12.188z M85.818,16.624h-2.105v0.146c0,0.306,0.193,0.458,0.582,0.458h1.523V16.624z
		 M85.758,12.965h-1.934c0.287,0.381,0.604,0.688,0.953,0.919C85.104,13.681,85.43,13.374,85.758,12.965"/>
	<path clip-path="url(#SVGID_2_)" fill="#656464" d="M104.295,11.247v0.389h-7.607v2.853c0,1.787-0.135,3.041-0.398,3.763
		c-0.273,0.729-0.613,1.27-1.023,1.625l-0.318-0.297c0.867-0.783,1.299-2.02,1.299-3.711v-0.01
		c-0.299,0.313-0.695,0.664-1.186,1.052l-0.307-0.347c0.553-0.389,1.059-0.829,1.514-1.319v-4.008h3.834
		c-0.273-0.259-0.566-0.484-0.879-0.674l0.285-0.318c0.443,0.314,0.836,0.645,1.178,0.992L104.295,11.247z M95.234,12.361
		c0.375,0.756,0.66,1.453,0.857,2.086l-0.416,0.194c-0.254-0.771-0.525-1.475-0.82-2.116L95.234,12.361z M99.182,17.699
		c-0.559,0.505-1.34,0.972-2.342,1.4l-0.215-0.377c0.852-0.335,1.619-0.777,2.301-1.33L99.182,17.699z M102.166,14.1
		c0.424-0.266,0.75-0.527,0.982-0.786l0.318,0.295c-0.293,0.294-0.617,0.542-0.971,0.746c0.516,0.417,1.123,0.778,1.818,1.083
		l-0.193,0.369c-0.662-0.307-1.17-0.604-1.523-0.889v2.146h-1.832v2.056c0,0.45-0.236,0.674-0.715,0.674
		c-0.273,0-0.621-0.041-1.043-0.122v-0.45c0.457,0.115,0.807,0.172,1.053,0.172c0.184,0,0.275-0.091,0.275-0.275v-2.056h-1.984
		v-2.127c-0.266,0.252-0.707,0.542-1.326,0.869l-0.195-0.369c0.633-0.313,1.193-0.68,1.676-1.104
		c-0.23-0.217-0.563-0.474-0.992-0.767l0.268-0.326c0.32,0.224,0.66,0.5,1.021,0.827c0.32-0.32,0.6-0.671,0.838-1.053h-2.441v-0.388
		h2.678c0.191-0.367,0.326-0.684,0.41-0.95l0.377,0.091c-0.076,0.246-0.188,0.532-0.338,0.859h3.691v0.388h-2.791
		C101.506,13.397,101.82,13.759,102.166,14.1 M102.199,14.786h-3.447v0.684h3.447V14.786z M98.752,16.676h3.447v-0.827h-3.447
		V16.676z M101.922,14.386c-0.43-0.374-0.811-0.831-1.146-1.371h-0.652c-0.273,0.492-0.627,0.948-1.064,1.371H101.922z
		 M102.064,17.413c0.553,0.341,1.266,0.825,2.137,1.452l-0.213,0.377c-0.361-0.258-0.73-0.523-1.105-0.796
		c-0.342-0.246-0.695-0.481-1.063-0.706L102.064,17.413z"/>
	
		<rect x="43.169" y="29.059" clip-path="url(#SVGID_2_)" fill-rule="evenodd" clip-rule="evenodd" fill="#EC7274" width="20.974" height="0.983"/>
	
		<rect x="64.143" y="29.059" clip-path="url(#SVGID_2_)" fill-rule="evenodd" clip-rule="evenodd" fill="#1EB6B7" width="20.973" height="0.983"/>
	
		<rect x="85.115" y="29.059" clip-path="url(#SVGID_2_)" fill-rule="evenodd" clip-rule="evenodd" fill="#9877BE" width="20.973" height="0.983"/>
</g>
</svg>
